<?xml version="1.0" encoding="utf-8"?>
<!-- Generator: Adobe Illustrator 24.3.0, SVG Export Plug-In . SVG Version: 6.00 Build 0)  -->
<svg version="1.1" id="Layer_1" xmlns="http://www.w3.org/2000/svg" xmlns:xlink="http://www.w3.org/1999/xlink" x="0px" y="0px"
	 viewBox="0 0 1920 1080" style="enable-background:new 0 0 1920 1080;" xml:space="preserve">
<style type="text/css">
	.st0{fill:#383737;}
	.st1{fill:#2E2E2E;}
	.st2{fill:#EB7E1C;}
	.st3{fill:#F8F8F8;}
	.st4{fill:#244C3C;}
	.st5{fill:#FDFDFD;}
</style>
<g>
	<g>
		<path class="st0" d="M588.36,268.87c14.59-46.3,64.08-86.57,105.82-86.11c4.22,5.1,10.04,2.96,15.14,2.97
			c83.54,0.13,167.08-0.32,250.62,0.22c68.63,0.45,137.28-2.33,205.88,1.54c2.1,0.12,2.49-2.21,2.89-3.95
			c59.31,11.14,103.57,63.7,104.01,128.23c0.98,142.2,1.17,284.41-0.05,426.6c-0.65,76.04-58.3,131.93-134.42,132.28
			c-140.57,0.65-281.15,0.53-421.73,0.06c-61.18-0.21-111.44-36.14-128.8-90.1c-0.8-2.5-0.91-5.22-1.34-7.83
			c6.64-8.95-0.32-17.98-0.28-26.96c0.6-144,0.43-287.99,0.42-431.99c0-11.62-0.94-23.31,4.19-34.35
			C592.52,275.63,592.81,271.59,588.36,268.87z M952.15,311.77c-101.09-4.23-190.36,58.69-224.99,147.48
			c-21.09,54.07-22.7,109.36-7.28,164.68c11.83,42.43,34.14,79.21,67.75,108.7c6.31,5.53,10.02,5.31,15.21-0.71
			c13.4-15.53,26.81-31.08,40.96-45.92c5.26-5.51,4.25-8.46-0.4-13.09c-6-5.97-12.24-12.04-16.77-19.09
			c-40.04-62.23-42.66-126.67-7.9-191.57c21.13-39.44,54.82-66.36,99.14-73.4c53.18-8.45,103.64,1.7,146.16,37.86
			c6.83,5.8,11.37,4.82,16.85-1.51c12.57-14.51,25.22-28.99,38.54-42.81c7.33-7.6,4.49-11.23-2.5-16.78
			C1068.6,327.23,1013.39,310.42,952.15,311.77z M922.68,594.56c8.8,0,13.56,0,18.32,0c37.28,0,74.56,0.27,111.84-0.21
			c8.79-0.11,11.33,2.33,11.22,11.16c-0.47,39.02-0.27,78.06-0.11,117.09c0.01,3.17-1.96,7.19,2.89,10.06
			c24.64-27.12,49.31-54.31,74.02-81.47c2.98-3.27,3.18-7.18,3.18-11.29c-0.06-35.44-0.24-70.88,0.11-106.32
			c0.08-8-2.01-10.96-10.52-10.9c-46.26,0.37-92.53,0.18-138.79,0.15c-4.13,0-7.89,0.27-10.98,3.72
			C964.49,548.21,944.99,569.79,922.68,594.56z"/>
	</g>
	<g>
		<path class="st1" d="M588.36,268.87c4.45,2.71,4.16,6.76,2.37,10.61c-5.13,11.05-4.19,22.73-4.19,34.35
			c0.01,144,0.18,288-0.42,431.99c-0.04,8.98,6.92,18.01,0.28,26.96c-4.44-9.04-5.19-18.85-5.2-28.6
			c-0.12-145.93-0.14-291.86-0.01-437.79C581.21,293.55,583.36,280.88,588.36,268.87z"/>
	</g>
	<g>
		<path class="st1" d="M1168.72,183.54c-0.4,1.75-0.79,4.07-2.89,3.95c-68.6-3.86-137.26-1.09-205.88-1.54
			c-83.54-0.54-167.08-0.09-250.62-0.22c-5.1-0.01-10.92,2.13-15.14-2.97c6.74-4.78,14.55-2.77,21.76-2.78
			c140.75-0.21,281.49-0.17,422.24-0.09C1148.47,179.9,1158.86,179.76,1168.72,183.54z"/>
	</g>
	<g>
		<path class="st2" d="M952.15,311.76c61.24-1.34,116.45,15.48,164.76,53.86c6.99,5.56,9.83,9.18,2.5,16.78
			c-13.32,13.81-25.96,28.3-38.54,42.81c-5.48,6.32-10.03,7.31-16.85,1.51c-42.52-36.16-92.98-46.31-146.16-37.86
			c-44.31,7.04-78.01,33.96-99.14,73.4c-34.77,64.9-32.14,129.34,7.9,191.57c4.54,7.05,10.78,13.11,16.77,19.09
			c4.65,4.63,5.65,7.58,0.4,13.09c-14.15,14.83-27.56,30.39-40.96,45.92c-5.19,6.01-8.9,6.24-15.21,0.71
			c-33.61-29.49-55.92-66.27-67.75-108.7c-15.43-55.32-13.81-110.61,7.28-164.68C761.79,370.45,851.06,307.54,952.15,311.76z"/>
	</g>
	<g>
		<path class="st3" d="M922.68,594.56c22.31-24.77,41.81-46.34,61.19-68.02c3.09-3.45,6.85-3.72,10.98-3.72
			c46.26,0.04,92.53,0.22,138.79-0.15c8.51-0.07,10.6,2.9,10.52,10.9c-0.35,35.44-0.17,70.88-0.11,106.32
			c0.01,4.12-0.2,8.02-3.18,11.29c-24.71,27.16-49.38,54.35-74.02,81.47c-4.85-2.87-2.88-6.88-2.89-10.06
			c-0.16-39.03-0.36-78.06,0.11-117.09c0.11-8.83-2.43-11.28-11.22-11.16c-37.27,0.48-74.56,0.21-111.84,0.21
			C936.24,594.56,931.48,594.56,922.68,594.56z"/>
	</g>
	<g>
		<g>
			<path class="st4" d="M1184.38,883H672.05c-52.42,0-94.92-42.5-94.92-94.92V275.74c0-52.42,42.5-94.92,94.92-94.92h512.33
				c52.42,0,94.92,42.5,94.92,94.92v512.33C1279.3,840.5,1236.8,883,1184.38,883z"/>
		</g>
		<g>
			<path class="st2" d="M816.43,415.89c-1.97,1.15-4.02,2-6.04,2.37C812.42,417.68,814.58,416.9,816.43,415.89z"/>
		</g>
		<g>
			<path class="st2" d="M979.13,705.2v4.14c-0.02-0.81-0.02-1.67-0.01-2.55C979.12,706.26,979.13,705.73,979.13,705.2z"/>
		</g>
		<g>
			<path class="st5" d="M1092.8,703.37c0-25.71-0.17-50.36,0.14-74.89c28.37-22.77,46.53-57.73,46.53-96.94
				c0-68.62-55.63-124.25-124.25-124.25c-39.58,0-74.83,18.5-97.58,47.33c-23.63,0.3-47.28,0.12-71,0.12c0.51-4,1.48-8.05,2.9-12.11
				c11.6-21.68,27.27-40.85,46-56.49c32.56-24.77,76.27-42.91,115.46-43.86c94.28-2.3,176.05,63.53,191.98,154.05
				C1221.68,602.52,1153.44,680.04,1092.8,703.37z"/>
		</g>
		<g>
			<path class="st2" d="M1053.6,494.45v221.77c0,3.56-2.88,6.44-6.44,6.44h-61.6c-3.56,0-6.44-2.88-6.44-6.44V705.2
				c0.1-17.36,0.05-34.8,0.04-55.11v-4.55c-43.57,51.39-95.88,76.98-160.25,74.38c-46.26-1.86-86.45-19.27-120.47-50.76
				c-64.43-59.62-78.59-157.58-33.82-233.88c28.79-49.07,79.39-82.07,133.92-90.01c25.48-3.72,51.82-1.96,77.2,6.19l-4.39,4.83
				c-0.26,0.2-0.5,0.41-0.71,0.65c-1.94,2.15-3.87,4.32-5.78,6.48l-0.17,0.2l-46.65,51.27c-0.04,0.02-0.07,0.05-0.11,0.08
				c-0.29,0.19-0.58,0.37-0.87,0.55c-0.11,0.07-0.23,0.14-0.34,0.21c-0.1,0.06-0.19,0.11-0.29,0.17c-1.85,1.01-4,1.79-6.04,2.37
				c-0.07,0.02-0.14,0.02-0.21,0.04c-2.45,0.42-4.86,0.9-7.25,1.47c-0.02,0-0.04,0.01-0.05,0.01c-0.02,0.01-0.03,0.01-0.04,0.01
				c-0.02,0.01-0.03,0.01-0.03,0.01c-49.64,11.69-86.73,55.1-88.9,106.15c-2.29,54.11,33.44,102.01,86.19,115.5
				c51.86,13.26,106.43-12.11,129.64-60.33c1.64-3.41,2.9-7.01,5.14-12.52h-14.2c-26.41-0.02-52.82-0.33-79.22,0.11
				c-7.47,0.12-11.35-2.16-11.38-9.58c-0.08-19.24-0.32-38.5,0.46-57.72c0.11-2.85,5.41-7.87,8.33-7.89
				c70.54-0.36,141.1-0.19,211.64-0.08C1051.25,493.44,1051.97,493.91,1053.6,494.45z"/>
		</g>
		<g>
			<path class="st2" d="M810.17,418.3c0.07-0.02,0.14-0.02,0.21-0.04c-3.56,1.02-6.79,1.44-7.46,1.5
				C805.31,419.2,807.72,418.72,810.17,418.3z"/>
		</g>
		<g>
			<path class="st2" d="M871.35,356.28l-6.5,7.14c1.92-2.17,3.85-4.33,5.78-6.48C870.85,356.69,871.1,356.48,871.35,356.28z"/>
		</g>
		<g>
			<path class="st5" d="M1207.87,532.29c0,76.18-44.74,141.9-109.38,172.32c-1.88,0.9-3.79,1.76-5.71,2.58V684.3
				c-0.03-18.94-0.07-37.42,0.17-55.82c28.37-22.77,46.53-57.73,46.53-96.94c0-68.62-55.63-124.25-124.25-124.25
				c-39.58,0-74.83,18.5-97.58,47.33c-23.63,0.3-47.28,0.12-71,0.12c0.51-4,1.48-8.05,2.9-12.11c11.6-21.68,27.27-40.85,46-56.49
				c33.03-27.6,75.55-44.21,121.97-44.21C1122.64,341.93,1207.87,427.15,1207.87,532.29z"/>
		</g>
	</g>
</g>
</svg>
