<?xml version="1.0" encoding="utf-8"?>
<!-- Generator: Adobe Illustrator 24.3.0, SVG Export Plug-In . SVG Version: 6.00 Build 0)  -->
<svg version="1.1" id="Layer_1" xmlns="http://www.w3.org/2000/svg" xmlns:xlink="http://www.w3.org/1999/xlink" x="0px" y="0px"
	 viewBox="0 0 1200 1200" style="enable-background:new 0 0 1200 1200;" xml:space="preserve">
<style type="text/css">
	.st0{opacity:0.74;fill:url(#SVGID_1_);}
	.st1{fill:url(#SVGID_2_);}
	.st2{clip-path:url(#SVGID_4_);}
	.st3{fill:url(#SVGID_5_);}
	.st4{fill:url(#SVGID_6_);}
	.st5{fill:url(#SVGID_7_);}
	.st6{fill:none;}
	.st7{fill:url(#SVGID_8_);}
	.st8{fill:url(#SVGID_9_);}
	.st9{opacity:0.46;fill:url(#SVGID_10_);}
	.st10{opacity:0.21;fill:url(#SVGID_11_);}
	.st11{opacity:0.46;fill:url(#SVGID_12_);}
	.st12{opacity:0.5;}
	.st13{fill:none;stroke:url(#SVGID_13_);stroke-width:4;stroke-miterlimit:10;}
	.st14{fill:url(#SVGID_14_);}
	.st15{fill:url(#SVGID_15_);}
	.st16{opacity:0.46;fill:url(#SVGID_16_);}
	.st17{opacity:0.09;fill:url(#SVGID_17_);}
	.st18{opacity:0.46;fill:url(#SVGID_18_);}
	.st19{opacity:0.5;fill:url(#SVGID_19_);}
	.st20{fill:#AA5900;}
	.st21{fill:url(#SVGID_20_);}
	.st22{opacity:0.46;fill:url(#SVGID_21_);}
	.st23{opacity:0.25;fill:url(#SVGID_22_);}
	.st24{opacity:0.46;fill:url(#SVGID_23_);}
	.st25{opacity:0.82;}
	.st26{opacity:0.29;fill:url(#SVGID_24_);}
	.st27{opacity:0.46;fill:url(#SVGID_25_);}
	.st28{opacity:0.48;fill:url(#SVGID_26_);}
	.st29{opacity:0.44;fill:url(#SVGID_27_);}
	.st30{opacity:0.48;}
	.st31{fill:url(#SVGID_28_);}
	.st32{fill:url(#SVGID_29_);}
	.st33{fill:url(#SVGID_30_);}
	.st34{fill:url(#SVGID_31_);}
	.st35{opacity:0.67;clip-path:url(#SVGID_4_);fill:url(#SVGID_32_);}
	.st36{opacity:0.67;clip-path:url(#SVGID_4_);fill:url(#SVGID_33_);}
	.st37{clip-path:url(#SVGID_4_);fill:url(#SVGID_34_);}
	.st38{opacity:0.29;fill:url(#SVGID_35_);}
	.st39{opacity:0.9;}
	.st40{fill:#F70501;}
	.st41{fill:url(#SVGID_36_);}
	.st42{fill:url(#SVGID_37_);}
	.st43{fill:url(#SVGID_38_);}
	.st44{fill:url(#SVGID_39_);}
	.st45{fill:url(#SVGID_40_);}
	.st46{fill:url(#SVGID_41_);}
	.st47{clip-path:url(#SVGID_43_);}
	.st48{fill:url(#SVGID_44_);}
	.st49{fill:url(#SVGID_45_);}
	.st50{fill:#D3D31B;}
	.st51{opacity:0.6;}
	.st52{fill:#84C302;}
	.st53{fill:url(#XMLID_6_);}
	.st54{clip-path:url(#SVGID_43_);fill:url(#SVGID_46_);}
	.st55{fill:url(#SVGID_47_);}
	.st56{fill:url(#SVGID_48_);}
	.st57{fill:url(#SVGID_49_);}
	.st58{fill:#6AB20D;}
	.st59{fill:url(#XMLID_7_);}
	.st60{fill:url(#XMLID_8_);}
	.st61{opacity:0.39;}
	.st62{fill:url(#XMLID_9_);}
	.st63{fill:url(#XMLID_10_);}
	.st64{fill:url(#XMLID_11_);}
	.st65{fill:url(#XMLID_12_);}
	.st66{fill:url(#XMLID_13_);}
	.st67{fill:url(#XMLID_14_);}
	.st68{fill:url(#XMLID_15_);}
	.st69{fill:url(#XMLID_16_);}
	.st70{fill:url(#XMLID_17_);}
	.st71{fill:url(#XMLID_18_);}
	.st72{fill:url(#XMLID_19_);}
	.st73{fill:url(#XMLID_20_);}
	.st74{fill:url(#XMLID_21_);}
	.st75{fill:url(#XMLID_22_);}
	.st76{fill:url(#XMLID_23_);}
	.st77{fill:url(#XMLID_24_);}
	.st78{fill:url(#XMLID_25_);}
	.st79{fill:url(#XMLID_26_);}
	.st80{fill:url(#XMLID_27_);}
	.st81{fill:url(#XMLID_28_);}
	.st82{fill:url(#XMLID_29_);}
	.st83{fill:url(#XMLID_30_);}
	.st84{fill:url(#XMLID_31_);}
	.st85{fill:url(#XMLID_32_);}
	.st86{fill:url(#XMLID_33_);}
	.st87{fill:url(#XMLID_34_);}
	.st88{fill:url(#XMLID_35_);}
	.st89{fill:url(#XMLID_36_);}
	.st90{fill:url(#XMLID_37_);}
	.st91{fill:url(#XMLID_38_);}
	.st92{fill:url(#XMLID_39_);}
	.st93{fill:url(#XMLID_40_);}
	.st94{fill:url(#XMLID_41_);}
	.st95{fill:url(#XMLID_42_);}
	.st96{fill:url(#XMLID_43_);}
	.st97{fill:url(#XMLID_44_);}
	.st98{fill:url(#XMLID_45_);}
	.st99{fill:url(#XMLID_46_);}
	.st100{fill:url(#XMLID_47_);}
	.st101{fill:url(#XMLID_48_);}
	.st102{fill:url(#XMLID_49_);}
	.st103{fill:url(#XMLID_50_);}
	.st104{fill:url(#XMLID_51_);}
	.st105{fill:url(#XMLID_52_);}
	.st106{fill:url(#XMLID_53_);}
	.st107{fill:url(#XMLID_54_);}
	.st108{fill:url(#XMLID_55_);}
	.st109{fill:url(#XMLID_56_);}
	.st110{fill:url(#XMLID_57_);}
	.st111{fill:url(#XMLID_58_);}
	.st112{fill:url(#XMLID_59_);}
	.st113{fill:url(#XMLID_60_);}
	.st114{fill:url(#XMLID_61_);}
	.st115{fill:url(#XMLID_62_);}
	.st116{fill:url(#XMLID_63_);}
	.st117{fill:url(#XMLID_64_);}
	.st118{fill:url(#XMLID_65_);}
	.st119{fill:url(#XMLID_66_);}
	.st120{fill:url(#XMLID_67_);}
	.st121{fill:url(#XMLID_68_);}
	.st122{fill:url(#XMLID_69_);}
	.st123{fill:url(#XMLID_70_);}
	.st124{fill:url(#XMLID_71_);}
	.st125{fill:url(#XMLID_72_);}
	.st126{fill:url(#XMLID_73_);}
	.st127{fill:url(#XMLID_74_);}
	.st128{fill:url(#XMLID_75_);}
	.st129{fill:url(#XMLID_76_);}
	.st130{fill:url(#XMLID_77_);}
	.st131{fill:url(#XMLID_78_);}
	.st132{fill:url(#XMLID_79_);}
	.st133{fill:url(#XMLID_80_);}
	.st134{fill:url(#XMLID_81_);}
	.st135{fill:url(#XMLID_82_);}
	.st136{fill:url(#XMLID_83_);}
	.st137{fill:url(#XMLID_84_);}
	.st138{fill:url(#XMLID_85_);}
	.st139{fill:url(#XMLID_86_);}
	.st140{fill:url(#XMLID_87_);}
	.st141{fill:url(#XMLID_88_);}
	.st142{fill:url(#XMLID_89_);}
	.st143{fill:url(#XMLID_90_);}
	.st144{fill:url(#XMLID_91_);}
	.st145{fill:url(#XMLID_92_);}
	.st146{fill:url(#XMLID_93_);}
	.st147{fill:url(#XMLID_94_);}
	.st148{fill:url(#XMLID_95_);}
	.st149{fill:url(#XMLID_96_);}
	.st150{fill:url(#XMLID_97_);}
	.st151{fill:url(#XMLID_98_);}
	.st152{fill:url(#XMLID_99_);}
	.st153{fill:url(#XMLID_100_);}
	.st154{fill:url(#XMLID_101_);}
	.st155{fill:url(#XMLID_102_);}
	.st156{fill:url(#XMLID_103_);}
	.st157{fill:url(#XMLID_104_);}
	.st158{fill:url(#XMLID_105_);}
	.st159{fill:url(#XMLID_106_);}
	.st160{fill:url(#XMLID_107_);}
	.st161{fill:url(#XMLID_108_);}
	.st162{fill:url(#XMLID_109_);}
	.st163{fill:url(#XMLID_110_);}
	.st164{fill:url(#XMLID_111_);}
	.st165{fill:url(#XMLID_112_);}
	.st166{fill:url(#XMLID_113_);}
	.st167{fill:url(#XMLID_114_);}
	.st168{fill:url(#XMLID_115_);}
	.st169{fill:url(#XMLID_116_);}
	.st170{fill:url(#XMLID_117_);}
	.st171{fill:url(#XMLID_118_);}
	.st172{fill:url(#XMLID_119_);}
	.st173{fill:url(#XMLID_120_);}
	.st174{fill:url(#XMLID_121_);}
	.st175{fill:url(#XMLID_122_);}
	.st176{fill:url(#XMLID_123_);}
	.st177{fill:url(#XMLID_124_);}
	.st178{fill:url(#XMLID_125_);}
	.st179{fill:url(#XMLID_126_);}
	.st180{fill:url(#XMLID_127_);}
	.st181{fill:url(#XMLID_128_);}
	.st182{fill:url(#XMLID_129_);}
	.st183{fill:url(#XMLID_130_);}
	.st184{fill:url(#XMLID_131_);}
	.st185{fill:url(#XMLID_132_);}
	.st186{fill:url(#XMLID_133_);}
	.st187{fill:url(#XMLID_134_);}
	.st188{fill:url(#XMLID_135_);}
	.st189{fill:url(#XMLID_136_);}
	.st190{fill:url(#XMLID_137_);}
	.st191{fill:url(#XMLID_138_);}
	.st192{fill:url(#XMLID_139_);}
	.st193{fill:url(#XMLID_140_);}
	.st194{fill:url(#XMLID_141_);}
	.st195{fill:url(#XMLID_142_);}
	.st196{fill:url(#XMLID_143_);}
	.st197{fill:url(#XMLID_144_);}
	.st198{fill:url(#XMLID_145_);}
	.st199{fill:url(#XMLID_146_);}
	.st200{fill:url(#XMLID_147_);}
	.st201{fill:url(#XMLID_148_);}
	.st202{fill:url(#XMLID_149_);}
	.st203{fill:url(#XMLID_150_);}
	.st204{fill:url(#XMLID_151_);}
	.st205{fill:url(#XMLID_152_);}
	.st206{fill:url(#XMLID_153_);}
	.st207{fill:url(#XMLID_154_);}
	.st208{fill:url(#XMLID_155_);}
	.st209{fill:url(#XMLID_156_);}
	.st210{fill:url(#XMLID_157_);}
	.st211{fill:url(#XMLID_158_);}
	.st212{fill:url(#XMLID_159_);}
	.st213{fill:url(#XMLID_160_);}
	.st214{fill:url(#XMLID_161_);}
	.st215{fill:url(#XMLID_162_);}
	.st216{fill:url(#XMLID_163_);}
	.st217{fill:url(#XMLID_164_);}
	.st218{fill:url(#XMLID_165_);}
	.st219{fill:url(#XMLID_166_);}
	.st220{fill:url(#XMLID_167_);}
	.st221{fill:url(#XMLID_168_);}
	.st222{fill:url(#XMLID_169_);}
	.st223{fill:url(#XMLID_170_);}
	.st224{fill:url(#XMLID_171_);}
	.st225{fill:url(#XMLID_172_);}
	.st226{fill:url(#XMLID_173_);}
	.st227{fill:url(#XMLID_174_);}
	.st228{fill:url(#XMLID_175_);}
	.st229{fill:url(#XMLID_176_);}
	.st230{fill:url(#XMLID_177_);}
	.st231{fill:url(#XMLID_178_);}
	.st232{fill:url(#XMLID_179_);}
	.st233{fill:url(#XMLID_180_);}
	.st234{fill:url(#XMLID_181_);}
	.st235{fill:url(#XMLID_182_);}
	.st236{fill:url(#XMLID_183_);}
	.st237{fill:url(#XMLID_184_);}
	.st238{fill:url(#XMLID_185_);}
	.st239{fill:url(#XMLID_186_);}
	.st240{fill:url(#XMLID_187_);}
	.st241{fill:url(#XMLID_188_);}
	.st242{fill:url(#XMLID_189_);}
	.st243{fill:url(#XMLID_190_);}
	.st244{fill:url(#XMLID_191_);}
	.st245{fill:url(#XMLID_192_);}
	.st246{fill:url(#XMLID_193_);}
	.st247{fill:url(#XMLID_194_);}
	.st248{fill:url(#XMLID_195_);}
	.st249{fill:url(#XMLID_196_);}
	.st250{fill:url(#XMLID_197_);}
	.st251{fill:url(#XMLID_198_);}
	.st252{fill:url(#XMLID_199_);}
	.st253{fill:url(#XMLID_200_);}
	.st254{fill:url(#XMLID_248_);}
	.st255{fill:url(#XMLID_300_);}
	.st256{fill:url(#XMLID_443_);}
	.st257{fill:url(#XMLID_448_);}
	.st258{fill:url(#XMLID_449_);}
	.st259{fill:url(#XMLID_450_);}
	.st260{fill:url(#XMLID_451_);}
	.st261{fill:url(#XMLID_458_);}
	.st262{fill:url(#XMLID_466_);}
	.st263{fill:url(#XMLID_467_);}
	.st264{fill:url(#XMLID_468_);}
	.st265{fill:url(#XMLID_469_);}
	.st266{fill:url(#XMLID_470_);}
	.st267{fill:url(#XMLID_471_);}
	.st268{fill:url(#XMLID_472_);}
	.st269{fill:url(#XMLID_473_);}
	.st270{fill:url(#XMLID_474_);}
	.st271{fill:url(#XMLID_475_);}
	.st272{fill:url(#XMLID_476_);}
	.st273{fill:url(#XMLID_477_);}
	.st274{fill:url(#XMLID_904_);}
	.st275{fill:url(#XMLID_905_);}
	.st276{fill:url(#XMLID_906_);}
	.st277{fill:url(#XMLID_907_);}
	.st278{fill:url(#XMLID_908_);}
	.st279{fill:url(#XMLID_909_);}
	.st280{fill:url(#XMLID_910_);}
	.st281{fill:url(#XMLID_911_);}
	.st282{fill:url(#XMLID_912_);}
	.st283{fill:url(#XMLID_913_);}
	.st284{fill:url(#XMLID_914_);}
	.st285{fill:url(#XMLID_915_);}
	.st286{fill:url(#XMLID_916_);}
	.st287{fill:url(#XMLID_917_);}
	.st288{fill:url(#XMLID_918_);}
	.st289{clip-path:url(#SVGID_43_);fill:url(#SVGID_50_);}
	.st290{fill:url(#SVGID_51_);}
	.st291{fill:url(#SVGID_52_);}
	.st292{fill:url(#XMLID_919_);}
	.st293{clip-path:url(#SVGID_43_);fill:url(#SVGID_53_);}
	.st294{fill:url(#SVGID_54_);}
	.st295{fill:url(#SVGID_55_);}
	.st296{fill:url(#SVGID_56_);}
	.st297{fill:url(#SVGID_57_);}
	.st298{fill:url(#SVGID_58_);}
	.st299{fill:url(#XMLID_920_);}
	.st300{clip-path:url(#SVGID_43_);fill:url(#SVGID_59_);}
	.st301{fill:url(#SVGID_60_);}
	.st302{fill:url(#SVGID_61_);}
	.st303{fill:url(#SVGID_62_);}
	.st304{fill:url(#SVGID_63_);}
	.st305{clip-path:url(#SVGID_43_);fill:url(#SVGID_64_);}
	.st306{clip-path:url(#SVGID_43_);fill:url(#SVGID_65_);}
	.st307{opacity:0.71;fill:url(#SVGID_66_);}
	.st308{fill:url(#XMLID_921_);}
	.st309{fill:url(#XMLID_922_);}
	.st310{fill:url(#XMLID_923_);}
	.st311{fill:url(#XMLID_924_);}
	.st312{fill:url(#XMLID_925_);}
	.st313{fill:url(#XMLID_926_);}
	.st314{fill:url(#XMLID_927_);}
	.st315{fill:url(#XMLID_928_);}
	.st316{fill:url(#XMLID_929_);}
	.st317{fill:url(#XMLID_956_);}
	.st318{fill:url(#XMLID_957_);}
	.st319{fill:url(#XMLID_958_);}
	.st320{fill:url(#XMLID_959_);}
	.st321{fill:url(#XMLID_968_);}
	.st322{fill:url(#XMLID_970_);}
	.st323{fill:url(#XMLID_983_);}
	.st324{fill:url(#XMLID_984_);}
	.st325{fill:url(#XMLID_985_);}
	.st326{fill:url(#XMLID_986_);}
	.st327{fill:url(#XMLID_987_);}
	.st328{opacity:0.71;fill:url(#SVGID_67_);}
	.st329{fill:url(#XMLID_988_);}
	.st330{fill:url(#XMLID_989_);}
	.st331{fill:url(#XMLID_990_);}
	.st332{fill:url(#XMLID_991_);}
	.st333{fill:url(#XMLID_992_);}
	.st334{fill:url(#XMLID_993_);}
	.st335{fill:url(#XMLID_994_);}
	.st336{fill:url(#XMLID_995_);}
	.st337{fill:url(#XMLID_996_);}
	.st338{fill:url(#XMLID_997_);}
	.st339{opacity:0.71;fill:url(#SVGID_68_);}
	.st340{fill:url(#XMLID_998_);}
	.st341{fill:url(#XMLID_999_);}
	.st342{fill:url(#XMLID_1000_);}
	.st343{fill:url(#XMLID_1001_);}
	.st344{fill:url(#XMLID_1002_);}
	.st345{fill:url(#XMLID_1003_);}
	.st346{fill:url(#XMLID_1004_);}
	.st347{fill:url(#XMLID_1005_);}
	.st348{fill:url(#XMLID_1006_);}
	.st349{fill:url(#XMLID_1007_);}
	.st350{opacity:0.71;fill:url(#SVGID_69_);}
	.st351{fill:url(#SVGID_70_);}
	.st352{fill:url(#SVGID_71_);}
	.st353{fill:url(#SVGID_72_);}
	.st354{fill:url(#SVGID_73_);}
	.st355{fill:url(#SVGID_74_);}
	.st356{fill:url(#SVGID_75_);}
	.st357{fill:url(#SVGID_76_);}
	.st358{fill:url(#SVGID_77_);}
	.st359{fill:url(#SVGID_78_);}
	.st360{fill:url(#SVGID_79_);}
	.st361{fill:url(#SVGID_80_);}
	.st362{fill:url(#SVGID_81_);}
	.st363{fill:url(#SVGID_82_);}
	.st364{fill:url(#SVGID_83_);}
	.st365{fill:url(#SVGID_84_);}
	.st366{fill:url(#SVGID_85_);}
	.st367{fill:url(#SVGID_86_);}
	.st368{fill:url(#SVGID_87_);}
	.st369{fill:url(#SVGID_88_);}
	.st370{fill:url(#SVGID_89_);}
	.st371{fill:url(#SVGID_90_);}
	.st372{fill:url(#SVGID_91_);}
	.st373{fill:url(#SVGID_92_);}
	.st374{fill:url(#SVGID_93_);}
	.st375{fill:url(#SVGID_94_);}
	.st376{fill:url(#SVGID_95_);}
	.st377{fill:url(#SVGID_96_);}
	.st378{fill:url(#SVGID_97_);}
	.st379{fill:url(#SVGID_98_);}
	.st380{fill:url(#SVGID_99_);}
	.st381{fill:url(#SVGID_100_);}
	.st382{fill:url(#SVGID_101_);}
	.st383{fill:url(#SVGID_102_);}
	.st384{fill:url(#SVGID_103_);}
	.st385{fill:url(#SVGID_104_);}
	.st386{fill:url(#SVGID_105_);}
	.st387{fill:url(#SVGID_106_);}
	.st388{fill:url(#SVGID_107_);}
	.st389{fill:url(#SVGID_108_);}
	.st390{fill:url(#SVGID_109_);}
	.st391{fill:#FDFF00;}
	.st392{fill:url(#SVGID_110_);}
	.st393{fill:url(#SVGID_111_);}
	.st394{fill:url(#SVGID_112_);}
	.st395{fill:url(#SVGID_113_);}
	.st396{fill:url(#SVGID_114_);}
	.st397{fill:url(#SVGID_115_);}
	.st398{fill:url(#SVGID_116_);}
	.st399{fill:url(#SVGID_117_);}
	.st400{fill:url(#SVGID_118_);}
	.st401{fill:url(#SVGID_119_);}
	.st402{fill:url(#SVGID_120_);}
	.st403{fill:url(#SVGID_121_);}
	.st404{fill:#383737;}
	.st405{fill:#2E2E2E;}
	.st406{fill:#EB7E1C;}
	.st407{fill:#F8F8F8;}
	.st408{fill:#244C3C;}
	.st409{fill:#FDFDFD;}
</style>
<g>
	<g>
		<path class="st404" d="M33.07,161.93C57.41,84.7,139.97,17.52,209.6,18.29c7.04,8.51,16.75,4.94,25.26,4.95
			c139.36,0.22,278.71-0.53,418.07,0.37c114.48,0.75,229-3.89,343.44,2.57c3.5,0.2,4.15-3.69,4.82-6.59
			c98.94,18.58,172.77,106.26,173.5,213.91c1.63,237.21,1.95,474.44-0.08,711.63c-1.08,126.85-97.25,220.08-224.23,220.66
			c-234.49,1.08-469,0.88-703.51,0.1c-102.06-0.35-185.9-60.29-214.86-150.3c-1.33-4.17-1.52-8.71-2.24-13.06
			c11.08-14.93-0.53-29.99-0.47-44.97c1-240.21,0.72-480.41,0.7-720.62c0-19.38-1.57-38.88,6.99-57.3
			C40.01,173.21,40.5,166.47,33.07,161.93z M639.93,233.49c-168.63-7.06-317.55,97.9-375.32,246.02
			c-35.18,90.2-37.87,182.43-12.14,274.71C272.2,825,309.42,886.35,365.48,935.55c10.53,9.22,16.71,8.86,25.37-1.18
			c22.35-25.91,44.72-51.85,68.33-76.6c8.77-9.19,7.09-14.11-0.67-21.84c-10.01-9.96-20.42-20.08-27.97-31.84
			c-66.79-103.81-71.16-211.3-13.18-319.57c35.25-65.79,91.45-110.7,165.38-122.44c88.71-14.1,172.89,2.84,243.82,63.16
			c11.39,9.68,18.97,8.04,28.11-2.52c20.97-24.2,42.07-48.36,64.29-71.41c12.23-12.68,7.49-18.73-4.17-27.99
			C834.18,259.28,742.08,231.24,639.93,233.49z M590.77,705.23c14.68,0,22.62,0,30.56,0c62.19,0,124.38,0.45,186.57-0.35
			c14.66-0.18,18.9,3.89,18.72,18.62c-0.78,65.09-0.45,130.22-0.18,195.32c0.02,5.29-3.27,11.99,4.82,16.78
			c41.1-45.24,82.26-90.6,123.48-135.9c4.97-5.45,5.3-11.98,5.3-18.83c-0.1-59.12-0.4-118.24,0.18-177.36
			c0.13-13.35-3.35-18.28-17.55-18.18c-77.17,0.62-154.35,0.3-231.52,0.25c-6.89,0-13.16,0.45-18.32,6.21
			C660.51,627.91,627.98,663.91,590.77,705.23z"/>
	</g>
	<g>
		<path class="st405" d="M33.07,161.93c7.42,4.52,6.94,11.28,3.95,17.7c-8.56,18.43-6.99,37.92-6.99,57.3
			c0.02,240.21,0.3,480.43-0.7,720.62c-0.07,14.98,11.54,30.04,0.47,44.97c-7.41-15.08-8.66-31.44-8.67-47.71
			c-0.2-243.43-0.23-486.86-0.02-730.3C21.15,203.1,24.73,181.96,33.07,161.93z"/>
	</g>
	<g>
		<path class="st405" d="M1001.2,19.59c-0.67,2.92-1.32,6.79-4.82,6.59c-114.43-6.44-228.97-1.82-343.44-2.57
			c-139.36-0.9-278.71-0.15-418.07-0.37c-8.51-0.02-18.22,3.55-25.26-4.95c11.24-7.97,24.27-4.62,36.3-4.64
			c234.79-0.35,469.57-0.28,704.36-0.15C967.42,13.52,984.75,13.28,1001.2,19.59z"/>
	</g>
	<g>
		<path class="st406" d="M639.93,233.48c102.16-2.24,194.26,25.82,274.84,89.85c11.66,9.27,16.4,15.31,4.17,27.99
			c-22.22,23.04-43.3,47.21-64.29,71.41c-9.14,10.54-16.73,12.19-28.11,2.52c-70.93-60.32-155.1-77.25-243.82-63.16
			c-73.92,11.74-130.13,56.65-165.38,122.44c-58,108.26-53.61,215.76,13.18,319.57c7.57,11.76,17.98,21.87,27.97,31.84
			c7.76,7.72,9.43,12.64,0.67,21.84c-23.6,24.74-45.97,50.69-68.33,76.6c-8.66,10.03-14.85,10.41-25.37,1.18
			c-56.07-49.19-93.28-110.55-113.02-181.33c-25.74-92.28-23.04-184.51,12.14-274.71C322.38,331.38,471.29,226.44,639.93,233.48z"/>
	</g>
	<g>
		<path class="st407" d="M590.77,705.23c37.22-41.32,69.75-77.3,102.07-113.47c5.15-5.76,11.43-6.21,18.32-6.21
			c77.17,0.07,154.35,0.37,231.52-0.25c14.2-0.12,17.68,4.84,17.55,18.18c-0.58,59.12-0.28,118.24-0.18,177.36
			c0.02,6.87-0.33,13.38-5.3,18.83c-41.22,45.31-82.37,90.66-123.48,135.9c-8.09-4.79-4.8-11.48-4.82-16.78
			c-0.27-65.11-0.6-130.22,0.18-195.32c0.18-14.73-4.05-18.82-18.72-18.62c-62.17,0.8-124.38,0.35-186.57,0.35
			C613.39,705.23,605.45,705.23,590.77,705.23z"/>
	</g>
	<g>
		<g>
			<path class="st408" d="M1027.32,1186.39H172.68c-87.44,0-158.34-70.9-158.34-158.34V173.39c0-87.44,70.9-158.34,158.34-158.34
				h854.64c87.44,0,158.34,70.9,158.34,158.34v854.64C1185.66,1115.49,1114.76,1186.39,1027.32,1186.39z"/>
		</g>
		<g>
			<path class="st406" d="M413.53,407.18c-3.29,1.92-6.71,3.34-10.08,3.95C406.84,410.17,410.44,408.87,413.53,407.18z"/>
		</g>
		<g>
			<path class="st406" d="M684.93,889.79v6.91c-0.03-1.35-0.03-2.79-0.02-4.25C684.92,891.56,684.93,890.68,684.93,889.79z"/>
		</g>
		<g>
			<path class="st409" d="M874.55,886.74c0-42.89-0.28-84.01,0.23-124.93c47.33-37.98,77.62-96.3,77.62-161.71
				c0-114.47-92.8-207.27-207.27-207.27c-66.03,0-124.83,30.86-162.78,78.95c-39.42,0.5-78.87,0.2-118.44,0.2
				c0.85-6.67,2.47-13.43,4.84-20.2c19.35-36.17,45.49-68.14,76.73-94.23c54.31-41.32,127.23-71.58,192.6-73.16
				c157.27-3.84,293.68,105.98,320.25,256.98C1089.54,718.51,975.71,847.82,874.55,886.74z"/>
		</g>
		<g>
			<path class="st406" d="M809.16,538.23v369.94c0,5.94-4.8,10.74-10.74,10.74H695.66c-5.94,0-10.74-4.8-10.74-10.74v-18.38
				c0.17-28.96,0.08-58.05,0.07-91.93v-7.59C612.3,876,525.04,918.68,417.66,914.35c-77.17-3.1-144.21-32.15-200.96-84.67
				c-107.48-99.45-131.1-262.87-56.42-390.15c48.03-81.86,132.43-136.9,223.4-150.15c42.5-6.21,86.44-3.27,128.78,10.33l-7.32,8.06
				c-0.43,0.33-0.83,0.68-1.18,1.08c-3.24,3.59-6.46,7.21-9.64,10.81l-0.28,0.33l-77.82,85.53c-0.07,0.03-0.12,0.08-0.18,0.13
				c-0.48,0.32-0.97,0.62-1.45,0.92c-0.18,0.12-0.38,0.23-0.57,0.35c-0.17,0.1-0.32,0.18-0.48,0.28c-3.09,1.68-6.67,2.99-10.08,3.95
				c-0.12,0.03-0.23,0.03-0.35,0.07c-4.09,0.7-8.11,1.5-12.09,2.45c-0.03,0-0.07,0.02-0.08,0.02c-0.03,0.02-0.05,0.02-0.07,0.02
				c-0.03,0.02-0.05,0.02-0.05,0.02c-82.81,19.5-144.68,91.91-148.3,177.07c-3.82,90.26,55.78,170.17,143.78,192.67
				c86.51,22.12,177.54-20.2,216.26-100.64c2.74-5.69,4.84-11.69,8.57-20.89h-23.69c-44.06-0.03-88.11-0.55-132.15,0.18
				c-12.46,0.2-18.93-3.6-18.98-15.98c-0.13-32.1-0.53-64.22,0.77-96.29c0.18-4.75,9.02-13.13,13.9-13.16
				c117.67-0.6,235.37-0.32,353.05-0.13C805.24,536.55,806.44,537.33,809.16,538.23z"/>
		</g>
		<g>
			<path class="st406" d="M403.08,411.2c0.12-0.03,0.23-0.03,0.35-0.07c-5.94,1.7-11.33,2.4-12.44,2.5
				C394.98,412.7,399,411.9,403.08,411.2z"/>
		</g>
		<g>
			<path class="st406" d="M505.14,307.74l-10.84,11.91c3.2-3.62,6.42-7.22,9.64-10.81C504.31,308.43,504.72,308.08,505.14,307.74z"
				/>
		</g>
		<g>
			<path class="st409" d="M1066.5,601.35c0,127.08-74.63,236.71-182.46,287.45c-3.14,1.5-6.32,2.94-9.53,4.3v-38.18
				c-0.05-31.59-0.12-62.42,0.28-93.12c47.33-37.98,77.62-96.3,77.62-161.71c0-114.47-92.8-207.27-207.27-207.27
				c-66.03,0-124.83,30.86-162.78,78.95c-39.42,0.5-78.87,0.2-118.44,0.2c0.85-6.67,2.47-13.43,4.84-20.2
				c19.35-36.17,45.49-68.14,76.73-94.23c55.1-46.04,126.03-73.75,203.46-73.75C924.33,283.8,1066.5,425.96,1066.5,601.35z"/>
		</g>
	</g>
</g>
</svg>
