<?xml version="1.0" encoding="utf-8"?>
<!-- Generator: Adobe Illustrator 24.3.0, SVG Export Plug-In . SVG Version: 6.00 Build 0)  -->
<svg version="1.1" id="Layer_1" xmlns="http://www.w3.org/2000/svg" xmlns:xlink="http://www.w3.org/1999/xlink" x="0px" y="0px"
	 viewBox="0 0 1920 1080" style="enable-background:new 0 0 1920 1080;" xml:space="preserve">
<style type="text/css">
	.st0{fill:#383737;}
	.st1{fill:#2E2E2E;}
	.st2{fill:#EB7E1C;}
	.st3{fill:#F8F8F8;}
	.st4{fill:#244C3C;}
	.st5{fill:#FDFDFD;}
	.st6{fill:#425E6A;}
</style>
<g>
	<g>
		<g>
			<path class="st0" d="M341.64,439.43c5.86-18.59,25.73-34.76,42.49-34.57c1.69,2.05,4.03,1.19,6.08,1.19
				c33.54,0.05,67.08-0.13,100.62,0.09c27.55,0.18,55.12-0.93,82.66,0.62c0.84,0.05,1-0.89,1.16-1.59
				c23.81,4.47,41.58,25.57,41.76,51.48c0.39,57.09,0.47,114.19-0.02,171.28c-0.26,30.53-23.41,52.97-53.97,53.11
				c-56.44,0.26-112.88,0.21-169.32,0.02c-24.56-0.08-44.74-14.51-51.71-36.17c-0.32-1-0.36-2.09-0.54-3.15
				c2.67-3.59-0.13-7.22-0.11-10.82c0.24-57.81,0.17-115.63,0.17-173.44c0-4.67-0.38-9.36,1.68-13.79
				C343.3,442.14,343.42,440.52,341.64,439.43z M487.7,456.65c-40.59-1.7-76.43,23.56-90.33,59.21
				c-8.47,21.71-9.12,43.91-2.92,66.12c4.75,17.04,13.71,31.8,27.2,43.64c2.53,2.22,4.02,2.13,6.11-0.28
				c5.38-6.23,10.76-12.48,16.44-18.44c2.11-2.21,1.71-3.4-0.16-5.25c-2.41-2.4-4.91-4.83-6.73-7.66
				c-16.08-24.98-17.13-50.86-3.17-76.92c8.48-15.84,22.01-26.64,39.8-29.47c21.35-3.39,41.61,0.68,58.68,15.2
				c2.74,2.33,4.56,1.93,6.77-0.6c5.05-5.83,10.12-11.64,15.47-17.19c2.94-3.05,1.8-4.51-1.01-6.74
				C534.45,462.86,512.29,456.11,487.7,456.65z M475.86,570.19c3.53,0,5.44,0,7.36,0c14.97,0,29.94,0.11,44.9-0.08
				c3.53-0.05,4.55,0.94,4.51,4.48c-0.19,15.67-0.11,31.34-0.04,47.01c0.01,1.27-0.79,2.89,1.16,4.04
				c9.89-10.89,19.8-21.81,29.72-32.71c1.2-1.31,1.28-2.88,1.28-4.53c-0.02-14.23-0.1-28.46,0.05-42.69
				c0.03-3.21-0.81-4.4-4.22-4.37c-18.57,0.15-37.15,0.07-55.72,0.06c-1.66,0-3.17,0.11-4.41,1.49
				C492.65,551.58,484.82,560.25,475.86,570.19z"/>
		</g>
		<g>
			<path class="st1" d="M341.64,439.43c1.79,1.09,1.67,2.71,0.95,4.26c-2.06,4.44-1.68,9.13-1.68,13.79
				c0,57.81,0.07,115.63-0.17,173.44c-0.02,3.61,2.78,7.23,0.11,10.82c-1.78-3.63-2.08-7.57-2.09-11.48
				c-0.05-58.59-0.06-117.18,0-175.77C338.77,449.34,339.63,444.25,341.64,439.43z"/>
		</g>
		<g>
			<path class="st1" d="M574.65,405.17c-0.16,0.7-0.32,1.63-1.16,1.59c-27.54-1.55-55.11-0.44-82.66-0.62
				c-33.54-0.22-67.08-0.04-100.62-0.09c-2.05,0-4.38,0.85-6.08-1.19c2.71-1.92,5.84-1.11,8.74-1.12
				c56.51-0.08,113.02-0.07,169.53-0.04C566.52,403.71,570.69,403.65,574.65,405.17z"/>
		</g>
		<g>
			<path class="st2" d="M487.7,456.65c24.59-0.54,46.75,6.21,66.15,21.63c2.81,2.23,3.95,3.69,1.01,6.74
				c-5.35,5.55-10.42,11.36-15.47,17.19c-2.2,2.54-4.03,2.94-6.77,0.6c-17.07-14.52-37.33-18.59-58.68-15.2
				c-17.79,2.83-31.32,13.63-39.8,29.47c-13.96,26.06-12.91,51.93,3.17,76.92c1.82,2.83,4.33,5.27,6.73,7.66
				c1.87,1.86,2.27,3.04,0.16,5.25c-5.68,5.96-11.06,12.2-16.44,18.44c-2.08,2.41-3.57,2.51-6.11,0.28
				c-13.49-11.84-22.45-26.61-27.2-43.64c-6.19-22.21-5.54-44.41,2.92-66.12C411.27,480.21,447.11,454.95,487.7,456.65z"/>
		</g>
		<g>
			<path class="st3" d="M475.86,570.19c8.96-9.94,16.79-18.61,24.57-27.31c1.24-1.39,2.75-1.49,4.41-1.49
				c18.57,0.01,37.15,0.09,55.72-0.06c3.42-0.03,4.26,1.16,4.22,4.37c-0.14,14.23-0.07,28.46-0.05,42.69c0,1.65-0.08,3.22-1.28,4.53
				c-9.92,10.91-19.83,21.82-29.72,32.71c-1.95-1.15-1.16-2.76-1.16-4.04c-0.06-15.67-0.15-31.34,0.04-47.01
				c0.04-3.55-0.98-4.53-4.51-4.48c-14.97,0.19-29.94,0.08-44.9,0.08C481.31,570.19,479.4,570.19,475.86,570.19z"/>
		</g>
		<g>
			<g>
				<path class="st4" d="M580.94,686h-205.7c-21.05,0-38.11-17.06-38.11-38.11v-205.7c0-21.05,17.06-38.11,38.11-38.11h205.7
					c21.05,0,38.11,17.06,38.11,38.11v205.7C619.05,668.94,601.98,686,580.94,686z"/>
			</g>
			<g>
				<path class="st2" d="M433.2,498.46c-0.79,0.46-1.61,0.8-2.43,0.95C431.6,499.17,432.46,498.86,433.2,498.46z"/>
			</g>
			<g>
				<path class="st2" d="M498.53,614.61v1.66c-0.01-0.33-0.01-0.67,0-1.02C498.52,615.04,498.53,614.83,498.53,614.61z"/>
			</g>
			<g>
				<path class="st5" d="M544.17,613.88c0-10.32-0.07-20.22,0.06-30.07c11.39-9.14,18.68-23.18,18.68-38.92
					c0-27.55-22.33-49.89-49.89-49.89c-15.89,0-30.04,7.43-39.18,19c-9.49,0.12-18.98,0.05-28.51,0.05c0.2-1.61,0.59-3.23,1.16-4.86
					c4.66-8.7,10.95-16.4,18.47-22.68c13.07-9.95,30.62-17.23,46.36-17.61c37.85-0.92,70.68,25.51,77.08,61.85
					C595.91,573.39,568.51,604.51,544.17,613.88z"/>
			</g>
			<g>
				<path class="st2" d="M528.43,530v89.04c0,1.43-1.16,2.58-2.58,2.58h-24.73c-1.43,0-2.58-1.16-2.58-2.58v-4.42
					c0.04-6.97,0.02-13.97,0.02-22.13v-1.83c-17.49,20.63-38.5,30.91-64.34,29.86c-18.57-0.75-34.71-7.74-48.37-20.38
					c-25.87-23.94-31.55-63.27-13.58-93.9c11.56-19.7,31.88-32.95,53.77-36.14c10.23-1.5,20.81-0.79,31,2.48l-1.76,1.94
					c-0.1,0.08-0.2,0.16-0.29,0.26c-0.78,0.86-1.55,1.73-2.32,2.6l-0.07,0.08l-18.73,20.59c-0.02,0.01-0.03,0.02-0.04,0.03
					c-0.12,0.08-0.23,0.15-0.35,0.22c-0.05,0.03-0.09,0.06-0.14,0.08c-0.04,0.02-0.08,0.05-0.12,0.07
					c-0.74,0.41-1.61,0.72-2.43,0.95c-0.03,0.01-0.06,0.01-0.09,0.02c-0.98,0.17-1.95,0.36-2.91,0.59c-0.01,0-0.02,0-0.02,0
					c-0.01,0-0.01,0-0.02,0c-0.01,0-0.01,0-0.01,0c-19.93,4.69-34.82,22.12-35.69,42.62c-0.92,21.72,13.43,40.96,34.61,46.37
					c20.82,5.32,42.73-4.86,52.05-24.22c0.66-1.37,1.16-2.81,2.07-5.03h-5.7c-10.6-0.01-21.21-0.13-31.81,0.04
					c-3,0.05-4.56-0.87-4.57-3.85c-0.03-7.73-0.13-15.46,0.19-23.17c0.05-1.14,2.17-3.16,3.34-3.17
					c28.32-0.15,56.65-0.08,84.97-0.03C527.48,529.59,527.78,529.78,528.43,530z"/>
			</g>
			<g>
				<path class="st2" d="M430.69,499.42c0.03-0.01,0.06-0.01,0.09-0.02c-1.43,0.41-2.73,0.58-3,0.6
					C428.74,499.78,429.71,499.59,430.69,499.42z"/>
			</g>
			<g>
				<path class="st2" d="M455.26,474.52l-2.61,2.86c0.77-0.87,1.54-1.74,2.32-2.6C455.06,474.69,455.15,474.6,455.26,474.52z"/>
			</g>
			<g>
				<path class="st5" d="M590.37,545.19c0,30.58-17.96,56.97-43.91,69.19c-0.76,0.36-1.52,0.7-2.29,1.03v-9.19
					c-0.01-7.6-0.03-15.02,0.07-22.41c11.39-9.14,18.68-23.18,18.68-38.92c0-27.55-22.33-49.89-49.89-49.89
					c-15.89,0-30.04,7.43-39.18,19c-9.49,0.12-18.98,0.05-28.51,0.05c0.2-1.61,0.59-3.23,1.16-4.86c4.66-8.7,10.95-16.4,18.47-22.68
					c13.26-11.08,30.33-17.75,48.97-17.75C556.15,468.76,590.37,502.98,590.37,545.19z"/>
			</g>
		</g>
	</g>
	<g>
		<path class="st6" d="M813.57,603.68c-4.47,2.84-9.29,5.32-14.47,7.45c-5.18,2.13-10.74,3.8-16.7,5c-5.96,1.2-12.2,1.81-18.72,1.81
			c-11.63,0-22.2-1.95-31.7-5.85c-9.5-3.9-17.62-9.29-24.36-16.17c-6.74-6.88-11.95-15-15.64-24.36c-3.69-9.36-5.53-19.5-5.53-30.42
			c0-10.49,1.88-20.42,5.64-29.78c3.76-9.36,9.04-17.55,15.85-24.57c6.81-7.02,14.92-12.58,24.36-16.7
			c9.43-4.11,19.75-6.17,30.95-6.17c6.52,0,12.44,0.46,17.76,1.38c5.32,0.92,10.24,2.23,14.78,3.94c4.54,1.7,8.83,3.8,12.87,6.27
			c4.04,2.48,7.98,5.35,11.81,8.62l-16.59,19.78c-2.84-2.41-5.74-4.61-8.72-6.59c-2.98-1.98-6.1-3.65-9.36-5
			c-3.26-1.35-6.84-2.41-10.74-3.19c-3.9-0.78-8.19-1.17-12.87-1.17c-6.81,0-13.16,1.39-19.04,4.16
			c-5.89,2.77-10.99,6.57-15.32,11.4c-4.33,4.83-7.73,10.44-10.21,16.84c-2.48,6.4-3.72,13.22-3.72,20.46
			c0,7.67,1.2,14.78,3.62,21.32c2.41,6.54,5.85,12.19,10.32,16.94c4.47,4.76,9.79,8.49,15.95,11.19c6.17,2.7,13.08,4.05,20.74,4.05
			c7.09,0,13.72-1.03,19.89-3.1s11.52-4.81,16.06-8.23v-28.02h-38.08v-22.76h63.39v62.54C822.11,597.87,818.03,600.85,813.57,603.68
			z"/>
		<path class="st6" d="M955.88,581.99c-3.05,7.09-7.23,13.29-12.55,18.61c-5.32,5.32-11.67,9.54-19.04,12.66
			c-7.38,3.12-15.39,4.68-24.04,4.68c-8.51,0-16.42-1.53-23.72-4.57c-7.31-3.05-13.61-7.23-18.93-12.55
			c-5.32-5.32-9.47-11.49-12.44-18.51c-2.98-7.02-4.47-14.57-4.47-22.66c0-8.08,1.52-15.71,4.57-22.87
			c3.05-7.16,7.23-13.4,12.55-18.72c5.32-5.32,11.63-9.54,18.93-12.66c7.3-3.12,15.28-4.68,23.93-4.68c8.65,0,16.63,1.53,23.93,4.57
			c7.3,3.05,13.61,7.23,18.93,12.55c5.32,5.32,9.47,11.52,12.44,18.61c2.98,7.09,4.47,14.68,4.47,22.76
			C960.45,567.31,958.93,574.9,955.88,581.99z M931.96,545.61c-1.69-4.39-4.05-8.26-7.08-11.59c-3.03-3.33-6.62-5.96-10.78-7.87
			s-8.77-2.87-13.84-2.87c-5.08,0-9.69,0.96-13.85,2.87c-4.16,1.91-7.72,4.5-10.68,7.76c-2.96,3.26-5.21,7.06-6.76,11.38
			c-1.55,4.33-2.32,8.97-2.32,13.93c0,4.97,0.84,9.68,2.54,14.15c1.69,4.47,4.05,8.33,7.08,11.59c3.03,3.26,6.62,5.85,10.78,7.76
			c4.16,1.92,8.71,2.87,13.64,2.87c5.21,0,9.9-0.96,14.06-2.87c4.16-1.91,7.72-4.5,10.68-7.76c2.96-3.26,5.21-7.05,6.76-11.38
			c1.55-4.33,2.33-8.97,2.33-13.93C934.5,554.69,933.65,550.01,931.96,545.61z"/>
		<path class="st6" d="M1090.21,490.09h-84.66v41.06h75.09v23.61h-75.09v60.63H979.6V466.48h110.62V490.09z"/>
		<path class="st6" d="M1211.99,581.99c-3.05,7.09-7.23,13.29-12.55,18.61s-11.67,9.54-19.04,12.66
			c-7.38,3.12-15.39,4.68-24.04,4.68c-8.51,0-16.42-1.53-23.72-4.57c-7.31-3.05-13.61-7.23-18.93-12.55
			c-5.32-5.32-9.47-11.49-12.45-18.51c-2.98-7.02-4.47-14.57-4.47-22.66c0-8.08,1.52-15.71,4.57-22.87
			c3.05-7.16,7.23-13.4,12.55-18.72c5.32-5.32,11.63-9.54,18.93-12.66c7.3-3.12,15.28-4.68,23.93-4.68c8.65,0,16.62,1.53,23.93,4.57
			c7.3,3.05,13.61,7.23,18.93,12.55c5.32,5.32,9.47,11.52,12.44,18.61c2.98,7.09,4.47,14.68,4.47,22.76
			C1216.57,567.31,1215.04,574.9,1211.99,581.99z M1188.08,545.61c-1.69-4.39-4.05-8.26-7.08-11.59c-3.03-3.33-6.62-5.96-10.78-7.87
			c-4.16-1.91-8.77-2.87-13.84-2.87c-5.08,0-9.69,0.96-13.85,2.87s-7.72,4.5-10.68,7.76c-2.96,3.26-5.21,7.06-6.76,11.38
			c-1.55,4.33-2.32,8.97-2.32,13.93c0,4.97,0.84,9.68,2.54,14.15c1.69,4.47,4.05,8.33,7.08,11.59c3.03,3.26,6.62,5.85,10.78,7.76
			c4.16,1.92,8.71,2.87,13.64,2.87c5.21,0,9.9-0.96,14.06-2.87c4.16-1.91,7.72-4.5,10.68-7.76c2.96-3.26,5.21-7.05,6.76-11.38
			c1.55-4.33,2.33-8.97,2.33-13.93C1190.62,554.69,1189.77,550.01,1188.08,545.61z"/>
		<path class="st6" d="M1258.69,615.38h-25.95V503.06h25.95v25.31c3.54-8.51,8.58-15.32,15.1-20.42c6.52-5.1,14.75-7.45,24.68-7.02
			v27.23h-1.49c-5.67,0-10.85,0.92-15.53,2.77c-4.68,1.84-8.72,4.61-12.12,8.3c-3.4,3.69-6.03,8.33-7.87,13.93
			c-1.85,5.6-2.77,12.09-2.77,19.46V615.38z"/>
		<path class="st6" d="M1420.22,506.2c6.17-3.65,13.51-5.47,22.03-5.47c12.35,0,21.99,3.72,28.94,11.17
			c6.96,7.45,10.43,18.05,10.43,31.8v71.69h-25.95v-63.67c0-8.91-1.98-15.7-5.93-20.37c-3.96-4.67-9.53-7-16.73-7
			c-7.06,0-12.81,2.37-17.26,7.11s-6.67,11.64-6.67,20.69v63.25h-25.95V551.5c0-8.77-1.98-15.49-5.93-20.16
			c-3.96-4.67-9.53-7-16.73-7s-12.99,2.48-17.36,7.43c-4.38,4.95-6.56,11.82-6.56,20.58v63.03h-25.95V503.06h25.95v17.19
			c1.84-2.57,3.83-5.01,5.95-7.3c2.12-2.29,4.57-4.36,7.33-6.23s5.88-3.33,9.36-4.4c3.47-1.07,7.33-1.61,11.59-1.61
			c8.08,0,14.92,1.82,20.51,5.47c5.6,3.65,9.88,8.48,12.86,14.49C1408.69,514.68,1414.04,509.85,1420.22,506.2z"/>
		<path class="st6" d="M1579.69,597.73c-2.13,4.4-5.07,8.05-8.83,10.96c-3.76,2.91-8.19,5.11-13.29,6.59s-10.57,2.23-16.38,2.23
			c-8.08,0-16.27-1.42-24.57-4.25c-8.3-2.84-15.99-7.02-23.08-12.55l11.49-17.44c6.1,4.54,12.3,7.98,18.61,10.32
			c6.31,2.34,12.37,3.51,18.19,3.51c5.53,0,9.82-1.1,12.87-3.3c3.05-2.2,4.57-5.14,4.57-8.83v-0.42c0-2.13-0.67-3.97-2.02-5.53
			c-1.35-1.56-3.19-2.94-5.53-4.15c-2.34-1.2-5.04-2.27-8.08-3.19c-3.05-0.92-6.21-1.88-9.47-2.87c-4.12-1.28-8.26-2.69-12.44-4.25
			c-4.19-1.56-7.95-3.58-11.28-6.06c-3.33-2.48-6.06-5.53-8.19-9.15s-3.19-8.12-3.19-13.51v-0.43c0-5.24,1.03-10,3.08-14.25
			c2.05-4.25,4.89-7.87,8.51-10.85c3.62-2.98,7.87-5.25,12.76-6.81c4.89-1.56,10.1-2.34,15.63-2.34c7.09,0,14.25,1.14,21.49,3.4
			c7.23,2.27,13.83,5.39,19.78,9.36l-10.21,18.29c-5.39-3.26-10.85-5.85-16.38-7.76s-10.63-2.87-15.32-2.87
			c-4.96,0-8.83,1.06-11.59,3.19c-2.77,2.13-4.15,4.82-4.15,8.08v0.43c0,1.99,0.71,3.72,2.13,5.21c1.42,1.49,3.3,2.84,5.64,4.04
			c2.34,1.21,5.03,2.34,8.08,3.4c3.05,1.06,6.2,2.09,9.47,3.08c4.11,1.28,8.22,2.77,12.34,4.47c4.11,1.7,7.83,3.8,11.17,6.28
			c3.33,2.48,6.06,5.5,8.19,9.04c2.13,3.55,3.19,7.87,3.19,12.98v0.43C1582.88,588.15,1581.81,593.33,1579.69,597.73z"/>
	</g>
</g>
</svg>
