<svg xmlns="http://www.w3.org/2000/svg" clip-rule="evenodd" fill-rule="evenodd" image-rendering="optimizeQuality" text-rendering="geometricPrecision" viewBox="0 0 7115 1971" style="fill: rgb(93, 73, 27);" original_string_length="8257"><g><g><g fill-rule="nonzero"><path d="M2599 828c0,-24 -13,-43 -36,-57 -24,-14 -63,-27 -116,-38 -176,-36 -264,-111 -264,-224 0,-66 28,-120 82,-164 55,-44 126,-66 214,-66 94,0 169,22 225,66 56,44 85,102 85,172l-198 0c0,-28 -9,-51 -27,-69 -19,-19 -47,-28 -86,-28 -33,0 -59,8 -77,22 -18,16 -27,35 -27,58 0,22 10,39 31,53 20,13 55,25 105,34 49,10 90,21 124,33 104,39 157,105 157,200 0,67 -29,122 -87,163 -58,42 -133,63 -224,63 -62,0 -118,-11 -166,-33 -48,-22 -85,-53 -113,-91 -27,-39 -41,-80 -41,-125l187 0c2,35 15,62 39,81 25,19 57,28 98,28 37,0 66,-7 85,-22 20,-14 30,-33 30,-56zm555 -717l0 182 127 0 0 145 -127 0 0 369c0,27 6,47 16,59 11,12 31,17 60,17 22,0 42,-1 59,-4l0 149c-39,12 -79,18 -120,18 -139,0 -209,-70 -212,-210l0 -398 -108 0 0 -145 108 0 0 -182 197 0zm653 366c-27,-3 -51,-5 -71,-5 -75,0 -124,25 -147,76l0 484 -198 0 0 -739 187 0 5 87c40,-68 95,-101 165,-101 22,0 42,3 61,8l-2 190zm503 555c-9,-18 -16,-40 -20,-66 -48,53 -110,80 -187,80 -72,0 -132,-21 -180,-63 -48,-42 -71,-95 -71,-159 0,-78 29,-139 87,-181 58,-42 142,-63 252,-63l91 0 0 -42c0,-34 -9,-61 -27,-82 -17,-20 -45,-30 -83,-30 -33,0 -59,8 -78,23 -19,16 -28,38 -28,65l-198 0c0,-43 13,-83 40,-119 26,-36 64,-65 112,-85 48,-21 102,-31 163,-31 91,0 163,22 217,68 53,46 80,110 80,193l0 321c1,70 10,123 29,159l0 12 -199 0zm-164 -137c30,0 56,-7 81,-20 25,-13 43,-30 55,-52l0 -127 -74 0c-99,0 -152,34 -158,102l-1 12c0,24 9,45 26,61 17,16 41,24 71,24zm722 -784l0 182 127 0 0 145 -127 0 0 369c0,27 6,47 16,59 11,12 31,17 60,17 22,0 42,-1 59,-4l0 149c-39,12 -79,18 -120,18 -139,0 -209,-70 -212,-210l0 -398 -108 0 0 -145 108 0 0 -182 197 0zm578 935c-109,0 -197,-33 -265,-100 -69,-66 -103,-155 -103,-266l0 -19c0,-74 15,-141 44,-199 28,-59 69,-104 122,-136 52,-32 112,-47 180,-47 101,0 181,32 239,95 58,64 87,155 87,272l0 81 -471 0c6,48 26,86 57,116 33,29 73,43 123,43 76,0 135,-27 178,-82l97 109c-30,41 -70,74 -120,98 -51,23 -107,35 -168,35zm-23 -608c-39,0 -71,14 -95,40 -25,27 -40,65 -47,114l275 0 0 -16c-1,-43 -13,-78 -36,-102 -23,-24 -55,-36 -97,-36zm648 -145l0 779c0,81 -22,145 -65,190 -43,45 -106,68 -187,68 -34,0 -67,-4 -98,-12l0 -156c24,4 44,6 62,6 60,0 90,-32 90,-95l0 -780 198 0zm-214 -191c0,-30 10,-54 30,-73 20,-19 46,-29 81,-29 34,0 61,10 81,29 20,19 29,43 29,73 0,30 -10,55 -30,74 -20,19 -47,28 -80,28 -34,0 -60,-9 -81,-28 -20,-19 -30,-44 -30,-74zm577 930l-198 0 0 -739 198 0 0 739zm-210 -930c0,-30 10,-54 30,-73 19,-19 46,-29 81,-29 33,0 60,10 80,29 20,19 30,43 30,73 0,30 -10,55 -30,74 -20,19 -47,28 -80,28 -34,0 -60,-9 -81,-28 -20,-19 -30,-44 -30,-74z" style="fill: inherit;"/><path d="M2336 1824l-57 0 0 -502 62 0 0 179c26,-32 59,-48 99,-48 22,0 44,4 63,13 20,9 37,22 50,38 13,16 23,36 30,59 7,23 11,47 11,74 0,62 -15,110 -46,144 -31,33 -68,50 -111,50 -43,0 -76,-17 -101,-53l0 46zm0 -185c0,44 6,75 17,94 20,32 46,48 79,48 27,0 50,-12 70,-35 19,-23 29,-58 29,-104 0,-48 -9,-83 -28,-105 -19,-23 -42,-34 -68,-34 -27,0 -51,12 -70,35 -20,23 -29,57 -29,101zm570 185l0 -54c-28,41 -66,61 -115,61 -21,0 -41,-4 -60,-12 -18,-8 -32,-18 -41,-31 -9,-12 -15,-27 -19,-45 -2,-13 -3,-32 -3,-58l0 -225 61 0 0 201c0,32 1,54 4,65 4,16 12,29 24,38 13,10 28,14 47,14 18,0 36,-4 52,-14 16,-9 27,-22 34,-39 7,-16 10,-39 10,-70l0 -195 62 0 0 364 -56 0zm152 -432l0 -70 62 0 0 70 -62 0zm0 432l0 -364 62 0 0 364 -62 0zm154 0l0 -502 62 0 0 502 -62 0zm392 0l0 -46c-23,35 -57,53 -102,53 -29,0 -55,-8 -79,-24 -25,-15 -43,-38 -57,-66 -13,-29 -20,-62 -20,-99 0,-36 6,-69 18,-98 12,-30 31,-52 55,-68 24,-16 51,-23 81,-23 21,0 41,4 58,14 17,9 31,21 42,36l0 -181 61 0 0 502 -57 0zm-195 -182c0,47 10,82 30,105 19,23 43,34 69,34 27,0 50,-11 69,-33 19,-22 28,-55 28,-100 0,-50 -9,-86 -29,-109 -19,-24 -42,-35 -71,-35 -27,0 -50,11 -68,33 -19,22 -28,58 -28,105zm350 -250l0 -70 61 0 0 70 -61 0zm0 432l0 -364 61 0 0 364 -61 0zm155 0l0 -364 56 0 0 52c26,-40 65,-59 115,-59 22,0 42,4 60,11 19,8 32,19 41,31 9,13 16,28 20,46 2,11 3,31 3,60l0 223 -62 0 0 -221c0,-25 -2,-44 -7,-56 -5,-13 -13,-23 -25,-30 -12,-7 -27,-11 -43,-11 -26,0 -49,8 -68,25 -19,16 -28,48 -28,94l0 199 -62 0zm378 30l60 8c2,19 9,32 21,41 15,11 36,17 62,17 29,0 51,-6 66,-17 16,-12 26,-28 32,-48 3,-13 4,-39 4,-79 -27,32 -60,48 -100,48 -50,0 -89,-18 -116,-54 -28,-36 -41,-79 -41,-130 0,-34 6,-66 18,-96 13,-29 31,-51 55,-67 24,-16 52,-24 84,-24 43,0 78,17 106,52l0 -45 57 0 0 314c0,57 -6,97 -18,120 -11,24 -29,43 -54,56 -25,14 -56,21 -92,21 -44,0 -79,-10 -105,-29 -27,-20 -40,-49 -39,-88zm51 -218c0,47 9,82 28,104 19,22 43,33 71,33 28,0 52,-11 71,-33 20,-22 29,-56 29,-102 0,-45 -10,-78 -29,-101 -20,-22 -44,-33 -72,-33 -27,0 -50,11 -70,33 -19,22 -28,55 -28,99zm601 188l-57 0 0 -502 61 0 0 179c26,-32 59,-48 100,-48 22,0 43,4 63,13 20,9 37,22 49,38 13,16 23,36 31,59 7,23 11,47 11,74 0,62 -16,110 -46,144 -31,33 -68,50 -111,50 -43,0 -77,-17 -101,-53l0 46zm-1 -185c0,44 6,75 18,94 19,32 46,48 79,48 27,0 50,-12 69,-35 20,-23 30,-58 30,-104 0,-48 -10,-83 -28,-105 -19,-23 -42,-34 -69,-34 -27,0 -50,12 -69,35 -20,23 -30,57 -30,101zm333 185l0 -364 55 0 0 56c14,-26 27,-43 40,-51 12,-8 25,-12 39,-12 21,0 42,6 63,19l-22 57c-14,-8 -29,-13 -44,-13 -14,0 -26,4 -36,12 -11,9 -19,20 -23,34 -7,22 -10,46 -10,72l0 190 -62 0zm471 -46c-23,20 -45,33 -66,41 -21,8 -44,12 -68,12 -40,0 -71,-9 -92,-29 -21,-19 -32,-44 -32,-74 0,-18 4,-34 12,-49 8,-15 19,-26 32,-35 13,-9 28,-16 44,-20 12,-3 31,-6 55,-10 50,-5 86,-12 110,-21 0,-8 0,-13 0,-16 0,-25 -6,-42 -17,-52 -16,-14 -39,-21 -71,-21 -29,0 -50,5 -64,15 -14,10 -24,28 -30,54l-61 -8c6,-26 15,-47 27,-63 13,-16 31,-28 55,-37 24,-8 51,-12 83,-12 31,0 56,3 75,11 20,7 34,16 43,27 9,11 16,25 20,42 1,11 3,30 3,57l0 81c0,57 1,94 3,109 3,15 8,30 15,44l-64 0c-6,-13 -10,-28 -12,-46zm-5 -136c-22,9 -56,16 -101,23 -25,3 -43,7 -53,12 -11,5 -19,11 -25,20 -5,9 -8,18 -8,29 0,16 6,30 18,41 13,11 31,16 55,16 24,0 45,-5 63,-15 19,-11 32,-25 41,-43 7,-14 10,-34 10,-61l0 -22zm157 182l0 -364 55 0 0 52c27,-40 66,-59 116,-59 22,0 42,4 60,11 18,8 32,19 41,31 9,13 16,28 19,46 3,11 4,31 4,60l0 223 -62 0 0 -221c0,-25 -2,-44 -7,-56 -5,-13 -13,-23 -25,-30 -12,-7 -27,-11 -43,-11 -26,0 -49,8 -68,25 -19,16 -28,48 -28,94l0 199 -62 0zm624 0l0 -46c-23,35 -57,53 -101,53 -29,0 -56,-8 -80,-24 -24,-15 -43,-38 -57,-66 -13,-29 -20,-62 -20,-99 0,-36 6,-69 18,-98 13,-30 31,-52 55,-68 24,-16 51,-23 81,-23 22,0 41,4 58,14 17,9 31,21 42,36l0 -181 61 0 0 502 -57 0zm-195 -182c0,47 10,82 30,105 20,23 43,34 69,34 27,0 50,-11 69,-33 19,-22 28,-55 28,-100 0,-50 -9,-86 -28,-109 -20,-24 -43,-35 -71,-35 -28,0 -51,11 -69,33 -18,22 -28,58 -28,105zm325 73l61 -10c4,25 13,43 29,56 15,13 37,20 65,20 29,0 50,-6 64,-17 13,-12 20,-25 20,-41 0,-14 -6,-25 -18,-33 -9,-5 -30,-12 -63,-20 -45,-12 -77,-22 -94,-30 -17,-8 -31,-20 -40,-34 -9,-15 -13,-31 -13,-49 0,-16 4,-31 11,-45 7,-14 17,-25 30,-34 10,-7 23,-13 39,-18 17,-5 34,-7 53,-7 29,0 54,4 75,12 22,8 38,19 48,33 10,15 17,33 21,57l-60 8c-3,-19 -11,-33 -24,-44 -13,-11 -31,-16 -55,-16 -28,0 -49,5 -61,14 -12,9 -18,20 -18,33 0,8 3,15 8,21 5,7 13,12 23,17 7,2 25,7 55,16 43,11 73,21 91,28 17,7 30,18 40,32 10,14 15,32 15,53 0,20 -6,39 -18,58 -12,18 -29,32 -52,42 -22,9 -48,14 -76,14 -48,0 -84,-9 -108,-29 -25,-20 -41,-48 -48,-87zm392 109l0 -70 70 0 0 70 -70 0z" style="fill: inherit;"/></g><g><path d="M1096 116c55,15 88,72 73,127 -15,56 -72,89 -127,74 -56,-15 -88,-72 -74,-128 15,-55 72,-88 128,-73z" style="fill: inherit;"/><path d="M1695 475c53,91 21,208 -70,260 -91,53 -207,22 -260,-70 -53,-91 -21,-207 70,-260 91,-52 207,-21 260,70z" style="fill: inherit;"/><path d="M1790 1196c-27,102 -132,162 -233,135 -102,-28 -162,-132 -135,-234 27,-101 132,-162 233,-134 102,27 162,131 135,233z" style="fill: inherit;"/><path d="M1347 1773c-91,52 -207,21 -260,-70 -53,-91 -21,-208 70,-260 91,-53 207,-22 260,69 53,92 21,208 -70,261z" style="fill: inherit;"/><path d="M631 1851c-93,-25 -147,-120 -123,-212 25,-93 120,-147 212,-123 93,25 148,120 123,212 -25,93 -120,148 -212,123z" style="fill: inherit;"/><path d="M79 1408c-43,-75 -17,-170 58,-213 74,-43 169,-18 212,57 44,74 18,170 -57,213 -74,43 -169,17 -213,-57z" style="fill: inherit;"/><path d="M5 718c20,-74 96,-118 169,-98 74,19 118,95 98,169 -19,74 -95,118 -169,98 -74,-20 -118,-96 -98,-169z" style="fill: inherit;"/><path d="M432 187c58,-33 132,-13 165,45 34,58 14,132 -44,165 -58,34 -132,14 -166,-44 -33,-58 -13,-132 45,-166z" style="fill: inherit;"/></g></g></g></svg>